# xmcd
#
# Track frame offsets:
#	150
#	13323
#	23605
#	34121
#	50453
#	60856
#	78278
#	102695
#	122324
#	133701
#	157343
#	171797
#	185849
#	198667
#	208444
#	231149
#	248152
#	265500
#	281868
#	295621
#	308025
#
# Disc length: 4371 seconds
#
# Revision: 1
# Processed by: cddbd v1.5.2PL0 Copyright (c) Steve Scherf et al.
# Submitted via: EZCDAudioConverter 8.1.0.1
#
DISCID=31111115
DTITLE=Eric Clapton and Friends - The Album CD 2 (Blackline Collection 2286)
DYEAR=2014
DGENRE=Blues
TTITLE0=You Can't Judge A Book By It's Cover
TTITLE1=Let It Rock
TTITLE2=Putty In Your Hands
TTITLE3=Little Red Rooster
TTITLE4=Got To Hurry
TTITLE5=Who Do You Love?
TTITLE6=She's So Respectable
TTITLE7=I'm A Man
TTITLE8=Sweet Music (Live)
TTITLE9=23 Hours Too Long (Live)
TTITLE10=Out On The Water Coast (Live)
TTITLE11=Eric Clapton and Friends feat. Jimmy Page - Draggin' My Tail
TTITLE12=Eric Clapton and Friends feat. Jimmy Page - Freight Loader
TTITLE13=West Coast Idea
TTITLE14=Eric Clapton and Friends feat. Jack Bruce and Ginger Baker - Five Long Ye
TTITLE14=ars (Live)
TTITLE15=Eric Clapton and Friends feat. Jack Bruce and Ginger Baker - (They Call I
TTITLE15=t) Stormy Monday Blues
TTITLE16=Eric Clapton and Friends feat. Jack Bruce and Ginger Baker - Big Boss Man
TTITLE16=(Live)
TTITLE17=Eric Clapton and Friends feat. Jack Bruce and Ginger Baker - Early In The
TTITLE17=Morning (Live)
TTITLE18=Eric Clapton and Friends feat. Jeff Beck - Jeff's Blues
TTITLE19=Eric Clapton and Friends feat. Jimmy Page - Highway 49
TTITLE20=Eric Clapton and Friends feat. Jimmy Page - Wang-Dang-Doodle (Live)
EXTD=
EXTT0=
EXTT1=
EXTT2=
EXTT3=
EXTT4=
EXTT5=
EXTT6=
EXTT7=
EXTT8=
EXTT9=
EXTT10=
EXTT11=
EXTT12=
EXTT13=
EXTT14=
EXTT15=
EXTT16=
EXTT17=
EXTT18=
EXTT19=
EXTT20=
PLAYORDER=
